<?xml version="1.0" encoding="UTF-8" standalone="no"?>
<!DOCTYPE svg PUBLIC "-//W3C//DTD SVG 1.1//EN" "http://www.w3.org/Graphics/SVG/1.1/DTD/svg11.dtd">
<svg xmlns="http://www.w3.org/2000/svg" version="1.1" viewBox="0.00 0.00 231.00 231.00">
<g stroke-width="2.00" fill="none" stroke-linecap="butt">
<path stroke="#efabd6" vector-effect="non-scaling-stroke" d="
  M 221.11 115.37
  A 105.58 105.58 0.0 0 0 115.53 9.79
  A 105.58 105.58 0.0 0 0 9.95 115.37
  A 105.58 105.58 0.0 0 0 115.53 220.95
  A 105.58 105.58 0.0 0 0 221.11 115.37"
/>
<path stroke="#efabd6" vector-effect="non-scaling-stroke" d="
  M 216.79 115.41
  A 101.29 101.29 0.0 0 0 115.50 14.12
  A 101.29 101.29 0.0 0 0 14.21 115.41
  A 101.29 101.29 0.0 0 0 115.50 216.70
  A 101.29 101.29 0.0 0 0 216.79 115.41"
/>
</g>
<path fill="#df57ad" d="
  M 228.16 115.39
  A 112.65 112.65 0.0 0 1 115.51 228.04
  A 112.65 112.65 0.0 0 1 2.86 115.39
  A 112.65 112.65 0.0 0 1 115.51 2.74
  A 112.65 112.65 0.0 0 1 228.16 115.39
  Z
  M 221.11 115.37
  A 105.58 105.58 0.0 0 0 115.53 9.79
  A 105.58 105.58 0.0 0 0 9.95 115.37
  A 105.58 105.58 0.0 0 0 115.53 220.95
  A 105.58 105.58 0.0 0 0 221.11 115.37
  Z"
/>
<path fill="#fffeff" d="
  M 221.11 115.37
  A 105.58 105.58 0.0 0 1 115.53 220.95
  A 105.58 105.58 0.0 0 1 9.95 115.37
  A 105.58 105.58 0.0 0 1 115.53 9.79
  A 105.58 105.58 0.0 0 1 221.11 115.37
  Z
  M 216.79 115.41
  A 101.29 101.29 0.0 0 0 115.50 14.12
  A 101.29 101.29 0.0 0 0 14.21 115.41
  A 101.29 101.29 0.0 0 0 115.50 216.70
  A 101.29 101.29 0.0 0 0 216.79 115.41
  Z"
/>
<path fill="#df57ad" d="
  M 216.79 115.41
  A 101.29 101.29 0.0 0 1 115.50 216.70
  A 101.29 101.29 0.0 0 1 14.21 115.41
  A 101.29 101.29 0.0 0 1 115.50 14.12
  A 101.29 101.29 0.0 0 1 216.79 115.41
  Z
  M 177.44 52.21
  L 54.48 51.79
  A 1.51 1.51 0.0 0 0 52.97 53.29
  L 52.75 115.62
  A 63.10 60.63 -89.8 0 0 113.16 178.93
  L 117.88 178.95
  A 63.10 60.63 -89.8 0 0 178.73 116.06
  L 178.95 53.73
  A 1.51 1.51 0.0 0 0 177.44 52.21
  Z"
/>
<path fill="#df57ad" d="
  M 146.23 115.04
  A 0.54 0.54 0.0 0 1 146.77 115.58
  L 146.76 117.49
  A 29.65 27.67 -89.9 0 1 119.04 147.10
  L 111.88 147.08
  A 29.65 27.67 -89.9 0 1 84.26 117.39
  L 84.27 115.48
  A 0.54 0.54 0.0 0 1 84.81 114.94
  L 146.23 115.04
  Z"
/>
</svg>
