<?xml version="1.0" encoding="UTF-8" standalone="no"?>
<!DOCTYPE svg PUBLIC "-//W3C//DTD SVG 1.1//EN" "http://www.w3.org/Graphics/SVG/1.1/DTD/svg11.dtd">
<svg xmlns="http://www.w3.org/2000/svg" version="1.1" viewBox="0.00 0.00 231.00 231.00">
<g stroke-width="2.00" fill="none" stroke-linecap="butt">
<path stroke="#acade9" vector-effect="non-scaling-stroke" d="
  M 221.09 115.40
  A 105.56 105.56 0.0 0 0 115.53 9.84
  A 105.56 105.56 0.0 0 0 9.97 115.40
  A 105.56 105.56 0.0 0 0 115.53 220.96
  A 105.56 105.56 0.0 0 0 221.09 115.40"
/>
<path stroke="#acade9" vector-effect="non-scaling-stroke" d="
  M 216.80 115.41
  A 101.30 101.30 0.0 0 0 115.50 14.11
  A 101.30 101.30 0.0 0 0 14.20 115.41
  A 101.30 101.30 0.0 0 0 115.50 216.71
  A 101.30 101.30 0.0 0 0 216.80 115.41"
/>
</g>
<path fill="#595ad3" d="
  M 228.16 115.39
  A 112.65 112.65 0.0 0 1 115.51 228.04
  A 112.65 112.65 0.0 0 1 2.86 115.39
  A 112.65 112.65 0.0 0 1 115.51 2.74
  A 112.65 112.65 0.0 0 1 228.16 115.39
  Z
  M 221.09 115.40
  A 105.56 105.56 0.0 0 0 115.53 9.84
  A 105.56 105.56 0.0 0 0 9.97 115.40
  A 105.56 105.56 0.0 0 0 115.53 220.96
  A 105.56 105.56 0.0 0 0 221.09 115.40
  Z"
/>
<path fill="#ffffff" d="
  M 221.09 115.40
  A 105.56 105.56 0.0 0 1 115.53 220.96
  A 105.56 105.56 0.0 0 1 9.97 115.40
  A 105.56 105.56 0.0 0 1 115.53 9.84
  A 105.56 105.56 0.0 0 1 221.09 115.40
  Z
  M 216.80 115.41
  A 101.30 101.30 0.0 0 0 115.50 14.11
  A 101.30 101.30 0.0 0 0 14.20 115.41
  A 101.30 101.30 0.0 0 0 115.50 216.71
  A 101.30 101.30 0.0 0 0 216.80 115.41
  Z"
/>
<path fill="#595ad3" d="
  M 216.80 115.41
  A 101.30 101.30 0.0 0 1 115.50 216.71
  A 101.30 101.30 0.0 0 1 14.20 115.41
  A 101.30 101.30 0.0 0 1 115.50 14.11
  A 101.30 101.30 0.0 0 1 216.80 115.41
  Z
  M 185.32 115.41
  A 69.81 69.81 0.0 0 0 115.51 45.60
  A 69.81 69.81 0.0 0 0 45.70 115.41
  A 69.81 69.81 0.0 0 0 115.51 185.22
  A 69.81 69.81 0.0 0 0 185.32 115.41
  Z"
/>
<path fill="#595ad3" d="
  M 94.27 71.56
  L 163.24 114.68
  A 0.83 0.83 0.0 0 1 163.24 116.08
  L 94.27 159.20
  A 0.83 0.83 0.0 0 1 93.00 158.50
  L 93.00 72.26
  A 0.83 0.83 0.0 0 1 94.27 71.56
  Z"
/>
</svg>
