<?xml version="1.0" encoding="UTF-8" standalone="no"?>
<!DOCTYPE svg PUBLIC "-//W3C//DTD SVG 1.1//EN" "http://www.w3.org/Graphics/SVG/1.1/DTD/svg11.dtd">
<svg xmlns="http://www.w3.org/2000/svg" version="1.1" viewBox="0.00 0.00 231.00 231.00">
<g stroke-width="2.00" fill="none" stroke-linecap="butt">
<path stroke="#ffcb80" vector-effect="non-scaling-stroke" d="
  M 221.05 115.38
  A 105.52 105.52 0.0 0 0 115.53 9.86
  A 105.52 105.52 0.0 0 0 10.01 115.38
  A 105.52 105.52 0.0 0 0 115.53 220.90
  A 105.52 105.52 0.0 0 0 221.05 115.38"
/>
<path stroke="#ffcb80" vector-effect="non-scaling-stroke" d="
  M 216.85 115.42
  A 101.33 101.33 0.0 0 0 115.52 14.09
  A 101.33 101.33 0.0 0 0 14.19 115.42
  A 101.33 101.33 0.0 0 0 115.52 216.75
  A 101.33 101.33 0.0 0 0 216.85 115.42"
/>
</g>
<path fill="#ff9600" d="
  M 228.26 115.33
  A 112.81 112.81 0.0 0 1 115.45 228.14
  A 112.81 112.81 0.0 0 1 2.64 115.33
  A 112.81 112.81 0.0 0 1 115.45 2.52
  A 112.81 112.81 0.0 0 1 228.26 115.33
  Z
  M 221.05 115.38
  A 105.52 105.52 0.0 0 0 115.53 9.86
  A 105.52 105.52 0.0 0 0 10.01 115.38
  A 105.52 105.52 0.0 0 0 115.53 220.90
  A 105.52 105.52 0.0 0 0 221.05 115.38
  Z"
/>
<path fill="#ffffff" d="
  M 221.05 115.38
  A 105.52 105.52 0.0 0 1 115.53 220.90
  A 105.52 105.52 0.0 0 1 10.01 115.38
  A 105.52 105.52 0.0 0 1 115.53 9.86
  A 105.52 105.52 0.0 0 1 221.05 115.38
  Z
  M 216.85 115.42
  A 101.33 101.33 0.0 0 0 115.52 14.09
  A 101.33 101.33 0.0 0 0 14.19 115.42
  A 101.33 101.33 0.0 0 0 115.52 216.75
  A 101.33 101.33 0.0 0 0 216.85 115.42
  Z"
/>
<path fill="#ff9600" d="
  M 216.85 115.42
  A 101.33 101.33 0.0 0 1 115.52 216.75
  A 101.33 101.33 0.0 0 1 14.19 115.42
  A 101.33 101.33 0.0 0 1 115.52 14.09
  A 101.33 101.33 0.0 0 1 216.85 115.42
  Z
  M 81.75 139.41
  L 98.69 151.85
  Q 99.21 152.23 99.59 151.72
  L 125.12 117.74
  Q 126.37 116.08 128.02 117.34
  L 142.83 128.61
  Q 144.35 129.78 145.50 128.24
  L 168.00 98.14
  Q 169.50 96.13 171.53 97.59
  L 179.82 103.54
  A 0.80 0.80 0.0 0 0 181.08 102.80
  C 180.73 99.68 181.90 97.06 181.94 93.89
  C 181.97 91.18 182.97 88.99 182.93 86.34
  C 182.86 82.49 183.83 78.59 184.06 75.21
  Q 184.58 67.72 186.00 60.63
  A 0.55 0.55 0.0 0 0 185.25 60.02
  L 145.64 77.16
  A 0.63 0.62 51.5 0 0 145.52 78.24
  L 154.41 84.75
  A 1.95 1.94 36.4 0 1 154.83 87.48
  L 141.89 104.84
  A 1.19 1.19 0.0 0 1 140.25 105.10
  L 123.32 93.03
  A 0.72 0.71 36.3 0 0 122.33 93.18
  L 96.15 128.12
  A 0.67 0.66 36.4 0 1 95.22 128.25
  L 79.58 116.65
  Q 77.59 115.18 76.12 117.15
  L 44.91 158.98
  A 1.21 1.21 0.0 0 0 45.15 160.67
  L 57.13 169.57
  A 0.79 0.79 0.0 0 0 58.24 169.41
  L 80.54 139.60
  Q 81.06 138.90 81.75 139.41
  Z"
/>
</svg>
