<?xml version="1.0" encoding="UTF-8" standalone="no"?>
<!DOCTYPE svg PUBLIC "-//W3C//DTD SVG 1.1//EN" "http://www.w3.org/Graphics/SVG/1.1/DTD/svg11.dtd">
<svg xmlns="http://www.w3.org/2000/svg" version="1.1" viewBox="0.00 0.00 231.00 231.00">
<g stroke-width="2.00" fill="none" stroke-linecap="butt">
<path stroke="#92dbeb" vector-effect="non-scaling-stroke" d="
  M 221.07 115.39
  A 105.55 105.55 0.0 0 0 115.52 9.84
  A 105.55 105.55 0.0 0 0 9.97 115.39
  A 105.55 105.55 0.0 0 0 115.52 220.94
  A 105.55 105.55 0.0 0 0 221.07 115.39"
/>
<path stroke="#92dbeb" vector-effect="non-scaling-stroke" d="
  M 216.83 115.41
  A 101.32 101.32 0.0 0 0 115.51 14.09
  A 101.32 101.32 0.0 0 0 14.19 115.41
  A 101.32 101.32 0.0 0 0 115.51 216.73
  A 101.32 101.32 0.0 0 0 216.83 115.41"
/>
</g>
<path fill="#25b7d6" d="
  M 228.11 115.37
  A 112.60 112.60 0.0 0 1 115.51 227.97
  A 112.60 112.60 0.0 0 1 2.91 115.37
  A 112.60 112.60 0.0 0 1 115.51 2.77
  A 112.60 112.60 0.0 0 1 228.11 115.37
  Z
  M 221.07 115.39
  A 105.55 105.55 0.0 0 0 115.52 9.84
  A 105.55 105.55 0.0 0 0 9.97 115.39
  A 105.55 105.55 0.0 0 0 115.52 220.94
  A 105.55 105.55 0.0 0 0 221.07 115.39
  Z"
/>
<path fill="#ffffff" d="
  M 221.07 115.39
  A 105.55 105.55 0.0 0 1 115.52 220.94
  A 105.55 105.55 0.0 0 1 9.97 115.39
  A 105.55 105.55 0.0 0 1 115.52 9.84
  A 105.55 105.55 0.0 0 1 221.07 115.39
  Z
  M 216.83 115.41
  A 101.32 101.32 0.0 0 0 115.51 14.09
  A 101.32 101.32 0.0 0 0 14.19 115.41
  A 101.32 101.32 0.0 0 0 115.51 216.73
  A 101.32 101.32 0.0 0 0 216.83 115.41
  Z"
/>
<path fill="#25b7d6" d="
  M 216.83 115.41
  A 101.32 101.32 0.0 0 1 115.51 216.73
  A 101.32 101.32 0.0 0 1 14.19 115.41
  A 101.32 101.32 0.0 0 1 115.51 14.09
  A 101.32 101.32 0.0 0 1 216.83 115.41
  Z
  M 60.08 140.99
  L 99.27 141.01
  A 0.84 0.84 0.0 0 1 100.07 141.59
  C 102.18 148.23 105.77 154.38 107.38 161.11
  A 1.13 1.12 -6.2 0 0 108.47 161.98
  L 126.66 162.06
  A 1.28 1.28 0.0 0 0 127.84 160.28
  L 89.21 69.49
  Q 89.00 69.02 88.48 69.01
  L 70.79 68.98
  Q 70.28 68.97 70.06 69.44
  C 69.21 71.24 68.46 73.86 67.95 75.07
  Q 52.69 111.07 37.30 147.01
  C 35.22 151.87 33.10 156.43 31.59 161.55
  A 0.40 0.40 0.0 0 0 31.97 162.06
  L 50.20 161.99
  Q 50.79 161.99 51.01 161.44
  L 59.36 141.47
  Q 59.56 140.99 60.08 140.99
  Z
  M 157.15 124.07
  A 0.87 0.87 0.0 0 1 158.02 124.94
  L 158.00 147.16
  A 0.87 0.87 0.0 0 0 158.87 148.03
  L 175.11 148.02
  A 0.87 0.87 0.0 0 0 175.98 147.16
  L 176.11 124.91
  A 0.87 0.87 0.0 0 1 176.98 124.05
  L 199.13 123.99
  A 0.87 0.87 0.0 0 0 200.00 123.12
  L 199.99 107.91
  A 0.87 0.87 0.0 0 0 199.12 107.04
  L 176.87 106.94
  A 0.87 0.87 0.0 0 1 176.00 106.07
  L 176.07 83.89
  A 0.87 0.87 0.0 0 0 175.20 83.02
  L 158.91 82.99
  A 0.87 0.87 0.0 0 0 158.04 83.86
  L 157.92 106.16
  A 0.87 0.87 0.0 0 1 157.05 107.03
  L 134.84 106.99
  A 0.87 0.87 0.0 0 0 133.97 107.86
  L 134.02 123.21
  A 0.87 0.87 0.0 0 0 134.89 124.08
  L 157.15 124.07
  Z"
/>
<path fill="#25b7d6" d="
  M 66.86 122.82
  L 78.68 93.75
  A 0.86 0.86 0.0 0 1 80.28 93.75
  L 92.10 122.82
  A 0.86 0.86 0.0 0 1 91.31 124.01
  L 67.65 124.01
  A 0.86 0.86 0.0 0 1 66.86 122.82
  Z"
/>
</svg>
