<?xml version="1.0" encoding="UTF-8" standalone="no"?>
<!DOCTYPE svg PUBLIC "-//W3C//DTD SVG 1.1//EN" "http://www.w3.org/Graphics/SVG/1.1/DTD/svg11.dtd">
<svg xmlns="http://www.w3.org/2000/svg" version="1.1" viewBox="0.00 0.00 231.00 231.00">
<g stroke-width="2.00" fill="none" stroke-linecap="butt">
<path stroke="#ff9d98" vector-effect="non-scaling-stroke" d="
  M 221.07 115.38
  A 105.54 105.54 0.0 0 0 115.53 9.84
  A 105.54 105.54 0.0 0 0 9.99 115.38
  A 105.54 105.54 0.0 0 0 115.53 220.92
  A 105.54 105.54 0.0 0 0 221.07 115.38"
/>
<path stroke="#ff9d98" vector-effect="non-scaling-stroke" d="
  M 216.82 115.41
  A 101.31 101.31 0.0 0 0 115.51 14.10
  A 101.31 101.31 0.0 0 0 14.20 115.41
  A 101.31 101.31 0.0 0 0 115.51 216.72
  A 101.31 101.31 0.0 0 0 216.82 115.41"
/>
</g>
<path fill="#ff3a30" d="
  M 5.88 88.43
  C 15.90 47.82 46.54 17.67 86.21 6.38
  Q 89.68 5.39 95.44 4.58
  C 99.66 3.99 103.66 2.97 107.89 2.99
  C 114.15 3.01 121.74 2.26 127.81 3.45
  Q 129.28 3.74 131.51 3.97
  Q 143.32 5.17 156.23 10.38
  Q 201.39 28.58 220.14 73.53
  Q 225.26 85.79 226.90 99.01
  C 227.29 102.12 227.87 104.99 228.01 108.03
  Q 230.36 159.98 194.77 195.52
  C 178.43 211.85 153.62 224.90 129.61 227.02
  C 127.64 227.19 125.83 227.96 123.95 227.97
  C 117.47 228.02 110.22 228.61 103.85 227.50
  C 96.32 226.19 88.91 225.39 80.58 222.62
  C 43.70 210.34 17.29 181.53 6.39 144.37
  Q 5.45 141.17 4.70 135.45
  C 4.17 131.42 3.06 127.42 3.01 123.46
  C 2.93 116.05 2.61 108.80 3.73 101.37
  C 4.38 97.04 4.88 92.48 5.88 88.43
  Z
  M 221.07 115.38
  A 105.54 105.54 0.0 0 0 115.53 9.84
  A 105.54 105.54 0.0 0 0 9.99 115.38
  A 105.54 105.54 0.0 0 0 115.53 220.92
  A 105.54 105.54 0.0 0 0 221.07 115.38
  Z"
/>
<path fill="#ffffff" d="
  M 221.07 115.38
  A 105.54 105.54 0.0 0 1 115.53 220.92
  A 105.54 105.54 0.0 0 1 9.99 115.38
  A 105.54 105.54 0.0 0 1 115.53 9.84
  A 105.54 105.54 0.0 0 1 221.07 115.38
  Z
  M 216.82 115.41
  A 101.31 101.31 0.0 0 0 115.51 14.10
  A 101.31 101.31 0.0 0 0 14.20 115.41
  A 101.31 101.31 0.0 0 0 115.51 216.72
  A 101.31 101.31 0.0 0 0 216.82 115.41
  Z"
/>
<path fill="#ff3a30" d="
  M 216.82 115.41
  A 101.31 101.31 0.0 0 1 115.51 216.72
  A 101.31 101.31 0.0 0 1 14.20 115.41
  A 101.31 101.31 0.0 0 1 115.51 14.10
  A 101.31 101.31 0.0 0 1 216.82 115.41
  Z
  M 155.95 78.93
  C 143.22 72.75 131.45 70.96 117.65 74.43
  A 1.31 1.30 -34.8 0 1 116.58 74.24
  Q 95.48 59.48 72.36 65.81
  C 55.16 70.51 41.80 83.16 36.97 100.50
  Q 31.92 118.58 39.22 134.96
  C 46.52 151.35 61.19 162.68 79.02 164.76
  Q 90.01 166.05 101.05 163.18
  Q 102.67 162.76 103.48 163.28
  Q 112.24 168.90 122.11 170.83
  Q 131.59 172.69 141.77 170.37
  C 174.79 162.85 189.72 127.90 174.62 97.94
  A 1.38 1.38 0.0 0 1 175.42 96.01
  L 194.28 89.89
  A 0.77 0.77 0.0 0 0 194.77 88.91
  L 187.52 67.25
  A 2.02 2.01 -89.4 0 0 186.30 66.00
  Q 176.62 62.46 166.25 59.27
  C 161.60 57.84 162.43 62.39 161.59 64.83
  Q 159.21 71.74 156.73 78.61
  Q 156.51 79.21 155.95 78.93
  Z"
/>
<path fill="#ff3a30" d="
  M 85.84 102.33
  Q 82.05 111.46 82.02 115.25
  C 81.98 121.09 81.59 127.52 82.77 132.87
  C 84.47 140.59 88.37 146.31 91.99 153.16
  A 1.17 1.16 -16.3 0 1 91.05 154.87
  C 68.96 156.53 50.65 143.28 45.97 121.54
  Q 44.68 115.55 45.70 109.46
  Q 49.78 85.10 73.42 76.28
  C 76.71 75.06 80.41 74.89 83.98 74.36
  C 87.57 73.83 90.79 75.00 94.39 75.33
  Q 98.52 75.72 104.90 79.32
  Q 105.40 79.60 104.93 79.91
  Q 91.37 88.98 85.84 102.33
  Z"
/>
<path fill="#ff3a30" d="
  M 134.28 128.81
  C 138.35 113.26 135.94 96.38 125.83 83.46
  Q 125.14 82.58 124.81 81.77
  Q 124.60 81.23 125.18 81.17
  Q 148.86 78.62 163.55 96.20
  C 168.67 102.32 171.78 109.58 172.11 117.57
  C 172.22 120.35 172.49 123.19 172.32 125.80
  C 171.11 144.36 156.78 159.11 139.04 162.88
  Q 132.30 164.32 125.37 163.13
  Q 118.53 161.97 112.09 158.97
  Q 111.55 158.72 112.03 158.35
  C 122.61 150.24 130.92 141.62 134.28 128.81
  Z"
/>
<path fill="#ff3a30" d="
  M 93.25 105.10
  Q 99.20 91.89 112.16 85.55
  Q 112.61 85.33 113.00 85.64
  Q 118.06 89.69 121.50 96.49
  Q 128.74 110.85 124.23 125.72
  Q 118.92 143.26 102.69 151.09
  A 1.07 1.07 0.0 0 1 101.43 150.85
  Q 94.16 143.05 91.06 132.80
  C 89.41 127.33 89.94 121.13 90.02 115.24
  Q 90.06 112.18 93.25 105.10
  Z"
/>
</svg>
