<?xml version="1.0" encoding="UTF-8" standalone="no"?>
<!DOCTYPE svg PUBLIC "-//W3C//DTD SVG 1.1//EN" "http://www.w3.org/Graphics/SVG/1.1/DTD/svg11.dtd">
<svg xmlns="http://www.w3.org/2000/svg" version="1.1" viewBox="0.00 0.00 231.00 231.00">
<g stroke-width="2.00" fill="none" stroke-linecap="butt">
<path stroke="#999da1" vector-effect="non-scaling-stroke" d="
  M 221.07 115.40
  A 105.54 105.54 0.0 0 0 115.53 9.86
  A 105.54 105.54 0.0 0 0 9.99 115.40
  A 105.54 105.54 0.0 0 0 115.53 220.94
  A 105.54 105.54 0.0 0 0 221.07 115.40"
/>
<path stroke="#999da1" vector-effect="non-scaling-stroke" d="
  M 216.57 115.41
  A 101.05 101.05 0.0 0 0 115.52 14.36
  A 101.05 101.05 0.0 0 0 14.47 115.41
  A 101.05 101.05 0.0 0 0 115.52 216.46
  A 101.05 101.05 0.0 0 0 216.57 115.41"
/>
<path stroke="#464b8b" vector-effect="non-scaling-stroke" d="
  M 62.51 73.40
  C 61.22 75.06 60.58 76.83 59.01 78.44
  Q 57.41 80.10 56.23 82.51
  C 48.51 98.20 45.65 115.01 50.17 131.92
  A 0.82 0.82 0.0 0 0 51.17 132.50
  L 65.00 128.84
  Q 65.70 128.65 65.53 127.95
  Q 61.08 109.17 69.65 91.97
  Q 69.87 91.52 69.87 91.02
  Q 69.86 90.50 70.12 90.12
  Q 72.77 86.30 75.53 83.08"
/>
<path stroke="#894978" vector-effect="non-scaling-stroke" d="
  M 75.53 83.08
  Q 86.70 69.93 102.27 65.44
  Q 108.13 63.75 113.96 63.81
  A 0.61 0.61 0.0 0 0 114.57 63.20
  L 114.64 48.88
  Q 114.64 48.15 113.91 48.11
  Q 110.71 47.92 106.52 48.52
  Q 79.57 52.42 62.51 73.40"
/>
<path stroke="#9c59c0" vector-effect="non-scaling-stroke" d="
  M 75.53 83.08
  Q 68.58 79.75 62.51 73.40"
/>
<path stroke="#996922" vector-effect="non-scaling-stroke" d="
  M 155.59 82.62
  C 164.83 96.00 169.13 108.29 166.33 124.71
  A 0.86 0.85 -78.8 0 0 166.97 125.68
  L 180.72 128.80
  A 0.84 0.84 0.0 0 0 181.74 128.12
  Q 186.89 97.86 168.53 73.83
  Q 168.25 73.46 167.79 73.33
  Q 167.51 73.25 167.35 73.00"
/>
<path stroke="#993b3a" vector-effect="non-scaling-stroke" d="
  M 167.35 73.00
  C 166.93 72.29 166.57 71.41 166.03 70.82
  Q 146.28 49.10 116.47 48.05
  Q 115.50 48.02 115.50 48.98
  L 115.48 63.04
  Q 115.48 63.65 116.09 63.67
  Q 140.04 64.64 155.59 82.62"
/>
<path stroke="#993b3a" vector-effect="non-scaling-stroke" d="
  M 167.35 73.00
  Q 161.21 77.00 155.97 82.31"
/>
<path stroke="#ff6818" vector-effect="non-scaling-stroke" d="
  M 155.97 82.31
  Q 156.14 82.20 155.59 82.62"
/>
<path stroke="#996922" vector-effect="non-scaling-stroke" d="
  M 167.35 73.00
  L 155.97 82.31"
/>
<path stroke="#5d8225" vector-effect="non-scaling-stroke" d="
  M 139.41 161.36
  Q 117.88 171.62 95.58 163.16
  Q 94.99 162.94 94.74 163.51
  L 89.06 176.67
  Q 88.81 177.25 89.39 177.48
  Q 118.70 189.26 146.85 174.99"
/>
<path stroke="#998422" vector-effect="non-scaling-stroke" d="
  M 146.85 174.99
  Q 173.95 160.27 181.28 130.15
  A 0.66 0.65 13.5 0 0 180.79 129.36
  L 166.72 126.10
  Q 166.15 125.97 166.02 126.53
  Q 161.12 146.99 143.59 158.53
  Q 141.42 159.96 139.41 161.36"
/>
<path stroke="#c4ca04" vector-effect="non-scaling-stroke" d="
  M 146.85 174.99
  Q 146.20 174.47 146.31 174.87"
/>
<path stroke="#998422" vector-effect="non-scaling-stroke" d="
  M 146.31 174.87
  Q 143.57 168.03 139.52 161.85"
/>
<path stroke="#c4ca04" vector-effect="non-scaling-stroke" d="
  M 139.52 161.85
  Q 139.58 162.30 139.41 161.36"
/>
<path stroke="#5d8225" vector-effect="non-scaling-stroke" d="
  M 139.52 161.85
  Q 142.22 168.74 146.31 174.87"
/>
<path stroke="#2c798d" vector-effect="non-scaling-stroke" d="
  M 64.54 129.60
  L 51.08 133.45
  Q 50.53 133.60 50.70 134.15
  Q 59.96 163.46 87.57 176.72
  A 0.64 0.64 0.0 0 0 88.44 176.39
  L 94.19 163.19
  Q 94.45 162.58 93.86 162.29
  Q 73.17 152.33 66.09 130.42
  A 1.27 1.27 0.0 0 0 64.54 129.60"
/>
</g>
<path fill="#323b43" d="
  M 228.13 115.36
  A 112.63 112.63 0.0 0 1 115.50 227.99
  A 112.63 112.63 0.0 0 1 2.87 115.36
  A 112.63 112.63 0.0 0 1 115.50 2.73
  A 112.63 112.63 0.0 0 1 228.13 115.36
  Z
  M 221.07 115.40
  A 105.54 105.54 0.0 0 0 115.53 9.86
  A 105.54 105.54 0.0 0 0 9.99 115.40
  A 105.54 105.54 0.0 0 0 115.53 220.94
  A 105.54 105.54 0.0 0 0 221.07 115.40
  Z"
/>
<path fill="#ffffff" d="
  M 221.07 115.40
  A 105.54 105.54 0.0 0 1 115.53 220.94
  A 105.54 105.54 0.0 0 1 9.99 115.40
  A 105.54 105.54 0.0 0 1 115.53 9.86
  A 105.54 105.54 0.0 0 1 221.07 115.40
  Z
  M 216.57 115.41
  A 101.05 101.05 0.0 0 0 115.52 14.36
  A 101.05 101.05 0.0 0 0 14.47 115.41
  A 101.05 101.05 0.0 0 0 115.52 216.46
  A 101.05 101.05 0.0 0 0 216.57 115.41
  Z"
/>
<path fill="#323b43" d="
  M 216.57 115.41
  A 101.05 101.05 0.0 0 1 115.52 216.46
  A 101.05 101.05 0.0 0 1 14.47 115.41
  A 101.05 101.05 0.0 0 1 115.52 14.36
  A 101.05 101.05 0.0 0 1 216.57 115.41
  Z
  M 62.51 73.40
  C 61.22 75.06 60.58 76.83 59.01 78.44
  Q 57.41 80.10 56.23 82.51
  C 48.51 98.20 45.65 115.01 50.17 131.92
  A 0.82 0.82 0.0 0 0 51.17 132.50
  L 65.00 128.84
  Q 65.70 128.65 65.53 127.95
  Q 61.08 109.17 69.65 91.97
  Q 69.87 91.52 69.87 91.02
  Q 69.86 90.50 70.12 90.12
  Q 72.77 86.30 75.53 83.08
  Q 86.70 69.93 102.27 65.44
  Q 108.13 63.75 113.96 63.81
  A 0.61 0.61 0.0 0 0 114.57 63.20
  L 114.64 48.88
  Q 114.64 48.15 113.91 48.11
  Q 110.71 47.92 106.52 48.52
  Q 79.57 52.42 62.51 73.40
  Z
  M 155.59 82.62
  C 164.83 96.00 169.13 108.29 166.33 124.71
  A 0.86 0.85 -78.8 0 0 166.97 125.68
  L 180.72 128.80
  A 0.84 0.84 0.0 0 0 181.74 128.12
  Q 186.89 97.86 168.53 73.83
  Q 168.25 73.46 167.79 73.33
  Q 167.51 73.25 167.35 73.00
  C 166.93 72.29 166.57 71.41 166.03 70.82
  Q 146.28 49.10 116.47 48.05
  Q 115.50 48.02 115.50 48.98
  L 115.48 63.04
  Q 115.48 63.65 116.09 63.67
  Q 140.04 64.64 155.59 82.62
  Z
  M 139.41 161.36
  Q 117.88 171.62 95.58 163.16
  Q 94.99 162.94 94.74 163.51
  L 89.06 176.67
  Q 88.81 177.25 89.39 177.48
  Q 118.70 189.26 146.85 174.99
  Q 173.95 160.27 181.28 130.15
  A 0.66 0.65 13.5 0 0 180.79 129.36
  L 166.72 126.10
  Q 166.15 125.97 166.02 126.53
  Q 161.12 146.99 143.59 158.53
  Q 141.42 159.96 139.41 161.36
  Z
  M 64.54 129.60
  L 51.08 133.45
  Q 50.53 133.60 50.70 134.15
  Q 59.96 163.46 87.57 176.72
  A 0.64 0.64 0.0 0 0 88.44 176.39
  L 94.19 163.19
  Q 94.45 162.58 93.86 162.29
  Q 73.17 152.33 66.09 130.42
  A 1.27 1.27 0.0 0 0 64.54 129.60
  Z"
/>
<path fill="#df57ad" d="
  M 75.53 83.08
  Q 68.58 79.75 62.51 73.40
  Q 79.57 52.42 106.52 48.52
  Q 110.71 47.92 113.91 48.11
  Q 114.64 48.15 114.64 48.88
  L 114.57 63.20
  A 0.61 0.61 0.0 0 1 113.96 63.81
  Q 108.13 63.75 102.27 65.44
  Q 86.70 69.93 75.53 83.08
  Z"
/>
<path fill="#ff3a30" d="
  M 167.35 73.00
  Q 161.21 77.00 155.97 82.31
  Q 156.14 82.20 155.59 82.62
  Q 140.04 64.64 116.09 63.67
  Q 115.48 63.65 115.48 63.04
  L 115.50 48.98
  Q 115.50 48.02 116.47 48.05
  Q 146.28 49.10 166.03 70.82
  C 166.57 71.41 166.93 72.29 167.35 73.00
  Z"
/>
<path fill="#323b43" d="
  M 167.35 73.00
  L 155.97 82.31
  Q 161.21 77.00 167.35 73.00
  Z"
/>
<path fill="#ff9600" d="
  M 167.35 73.00
  Q 167.51 73.25 167.79 73.33
  Q 168.25 73.46 168.53 73.83
  Q 186.89 97.86 181.74 128.12
  A 0.84 0.84 0.0 0 1 180.72 128.80
  L 166.97 125.68
  A 0.86 0.85 -78.8 0 1 166.33 124.71
  C 169.13 108.29 164.83 96.00 155.59 82.62
  Q 156.14 82.20 155.97 82.31
  L 167.35 73.00
  Z"
/>
<path fill="#595ad3" d="
  M 62.51 73.40
  Q 68.58 79.75 75.53 83.08
  Q 72.77 86.30 70.12 90.12
  Q 69.86 90.50 69.87 91.02
  Q 69.87 91.52 69.65 91.97
  Q 61.08 109.17 65.53 127.95
  Q 65.70 128.65 65.00 128.84
  L 51.17 132.50
  A 0.82 0.82 0.0 0 1 50.17 131.92
  C 45.65 115.01 48.51 98.20 56.23 82.51
  Q 57.41 80.10 59.01 78.44
  C 60.58 76.83 61.22 75.06 62.51 73.40
  Z"
/>
<path fill="#ffcc01" d="
  M 146.85 174.99
  Q 146.20 174.47 146.31 174.87
  Q 143.57 168.03 139.52 161.85
  Q 139.58 162.30 139.41 161.36
  Q 141.42 159.96 143.59 158.53
  Q 161.12 146.99 166.02 126.53
  Q 166.15 125.97 166.72 126.10
  L 180.79 129.36
  A 0.66 0.65 13.5 0 1 181.28 130.15
  Q 173.95 160.27 146.85 174.99
  Z"
/>
<path fill="#25b7d6" d="
  M 64.54 129.60
  A 1.27 1.27 0.0 0 1 66.09 130.42
  Q 73.17 152.33 93.86 162.29
  Q 94.45 162.58 94.19 163.19
  L 88.44 176.39
  A 0.64 0.64 0.0 0 1 87.57 176.72
  Q 59.96 163.46 50.70 134.15
  Q 50.53 133.60 51.08 133.45
  L 64.54 129.60
  Z"
/>
<path fill="#88c807" d="
  M 139.41 161.36
  Q 139.58 162.30 139.52 161.85
  Q 142.22 168.74 146.31 174.87
  Q 146.20 174.47 146.85 174.99
  Q 118.70 189.26 89.39 177.48
  Q 88.81 177.25 89.06 176.67
  L 94.74 163.51
  Q 94.99 162.94 95.58 163.16
  Q 117.88 171.62 139.41 161.36
  Z"
/>
<path fill="#323b43" d="
  M 139.52 161.85
  Q 143.57 168.03 146.31 174.87
  Q 142.22 168.74 139.52 161.85
  Z"
/>
</svg>
