<?xml version="1.0" encoding="UTF-8" standalone="no"?>
<!DOCTYPE svg PUBLIC "-//W3C//DTD SVG 1.1//EN" "http://www.w3.org/Graphics/SVG/1.1/DTD/svg11.dtd">
<svg xmlns="http://www.w3.org/2000/svg" version="1.1" viewBox="0.00 0.00 231.00 231.00">
<g stroke-width="2.00" fill="none" stroke-linecap="butt">
<path stroke="#ffe680" vector-effect="non-scaling-stroke" d="
  M 221.03 115.38
  A 105.50 105.50 0.0 0 0 115.53 9.88
  A 105.50 105.50 0.0 0 0 10.03 115.38
  A 105.50 105.50 0.0 0 0 115.53 220.88
  A 105.50 105.50 0.0 0 0 221.03 115.38"
/>
<path stroke="#ffe680" vector-effect="non-scaling-stroke" d="
  M 216.88 115.43
  A 101.35 101.35 0.0 0 0 115.53 14.08
  A 101.35 101.35 0.0 0 0 14.18 115.43
  A 101.35 101.35 0.0 0 0 115.53 216.78
  A 101.35 101.35 0.0 0 0 216.88 115.43"
/>
</g>
<path fill="#ffcc01" d="
  M 228.22 115.35
  A 112.77 112.77 0.0 0 1 115.45 228.12
  A 112.77 112.77 0.0 0 1 2.68 115.35
  A 112.77 112.77 0.0 0 1 115.45 2.58
  A 112.77 112.77 0.0 0 1 228.22 115.35
  Z
  M 221.03 115.38
  A 105.50 105.50 0.0 0 0 115.53 9.88
  A 105.50 105.50 0.0 0 0 10.03 115.38
  A 105.50 105.50 0.0 0 0 115.53 220.88
  A 105.50 105.50 0.0 0 0 221.03 115.38
  Z"
/>
<path fill="#ffffff" d="
  M 221.03 115.38
  A 105.50 105.50 0.0 0 1 115.53 220.88
  A 105.50 105.50 0.0 0 1 10.03 115.38
  A 105.50 105.50 0.0 0 1 115.53 9.88
  A 105.50 105.50 0.0 0 1 221.03 115.38
  Z
  M 216.88 115.43
  A 101.35 101.35 0.0 0 0 115.53 14.08
  A 101.35 101.35 0.0 0 0 14.18 115.43
  A 101.35 101.35 0.0 0 0 115.53 216.78
  A 101.35 101.35 0.0 0 0 216.88 115.43
  Z"
/>
<path fill="#ffcc01" d="
  M 216.88 115.43
  A 101.35 101.35 0.0 0 1 115.53 216.78
  A 101.35 101.35 0.0 0 1 14.18 115.43
  A 101.35 101.35 0.0 0 1 115.53 14.08
  A 101.35 101.35 0.0 0 1 216.88 115.43
  Z
  M 78.18 106.41
  C 84.07 100.74 74.06 93.75 71.02 101.63
  A 1.31 1.27 -45.8 0 0 71.02 102.56
  C 71.97 104.95 72.93 106.91 73.07 109.40
  C 73.76 121.69 61.80 126.72 51.14 124.80
  Q 46.97 124.05 45.06 120.35
  C 42.74 115.85 45.28 109.77 47.74 105.68
  A 1.08 1.07 -41.7 0 0 47.80 104.67
  Q 42.30 92.69 35.15 82.11
  C 34.47 81.11 34.07 79.64 33.39 78.65
  A 0.93 0.93 0.0 0 0 31.71 79.30
  C 32.17 82.84 33.13 85.71 32.96 89.24
  Q 32.74 93.64 33.47 97.96
  C 34.25 102.59 33.72 106.93 34.58 111.54
  C 35.46 116.16 34.79 120.48 35.59 125.46
  Q 36.42 130.64 35.83 135.95
  A 1.71 1.67 -22.1 0 1 35.44 136.84
  C 30.97 142.08 31.09 149.17 33.46 155.13
  A 1.38 1.37 -10.6 0 0 34.74 156.00
  L 194.01 156.00
  A 3.84 3.83 1.7 0 0 197.84 152.39
  C 198.13 147.22 199.28 140.99 194.71 137.34
  A 1.27 1.25 -74.7 0 1 194.26 136.54
  Q 193.40 130.47 194.43 124.52
  Q 194.99 121.29 194.91 118.40
  Q 194.74 112.92 195.58 107.50
  C 196.14 103.88 195.69 100.13 196.40 96.40
  C 197.17 92.44 196.72 88.85 197.50 84.97
  C 198.10 82.02 198.04 79.77 198.00 77.00
  A 0.66 0.66 0.0 0 0 196.79 76.65
  Q 189.57 87.65 185.61 100.45
  C 183.77 106.38 187.75 111.32 186.89 116.81
  C 185.92 123.01 181.16 124.79 175.53 125.03
  Q 171.40 125.21 170.02 124.94
  Q 161.70 123.34 158.28 116.22
  C 157.18 113.92 156.91 110.91 156.35 108.23
  Q 156.25 107.75 156.50 107.33
  C 157.68 105.38 159.97 103.04 158.38 100.62
  C 155.12 95.65 148.71 99.59 150.19 102.78
  Q 153.91 110.82 150.17 117.33
  C 145.98 124.60 137.93 125.99 130.03 124.67
  C 123.59 123.60 121.33 118.88 124.48 113.20
  Q 128.13 106.62 127.07 99.49
  Q 124.91 85.07 117.17 72.83
  Q 116.17 71.25 115.08 70.43
  Q 114.55 70.03 114.19 70.58
  Q 105.40 83.79 103.09 99.51
  Q 102.04 106.62 105.18 112.65
  Q 106.92 115.99 107.05 117.56
  Q 107.49 123.26 101.23 124.47
  Q 93.61 125.95 89.79 124.70
  Q 77.09 120.55 77.79 107.26
  Q 77.82 106.76 78.18 106.41
  Z"
/>
</svg>
