<?xml version="1.0" encoding="UTF-8" standalone="no"?>
<!DOCTYPE svg PUBLIC "-//W3C//DTD SVG 1.1//EN" "http://www.w3.org/Graphics/SVG/1.1/DTD/svg11.dtd">
<svg xmlns="http://www.w3.org/2000/svg" version="1.1" viewBox="0.00 0.00 231.00 231.00">
<g stroke-width="2.00" fill="none" stroke-linecap="butt">
<path stroke="#c4e483" vector-effect="non-scaling-stroke" d="
  M 221.06 115.39
  A 105.53 105.53 0.0 0 0 115.53 9.86
  A 105.53 105.53 0.0 0 0 10.00 115.39
  A 105.53 105.53 0.0 0 0 115.53 220.92
  A 105.53 105.53 0.0 0 0 221.06 115.39"
/>
<path stroke="#c4e483" vector-effect="non-scaling-stroke" d="
  M 216.85 115.41
  A 101.33 101.33 0.0 0 0 115.52 14.08
  A 101.33 101.33 0.0 0 0 14.19 115.41
  A 101.33 101.33 0.0 0 0 115.52 216.74
  A 101.33 101.33 0.0 0 0 216.85 115.41"
/>
<path stroke="#c4e483" vector-effect="non-scaling-stroke" d="
  M 58.36 133.95
  Q 57.79 133.71 56.99 134.24
  A 0.45 0.45 0.0 0 0 57.01 135.01
  Q 57.61 135.37 58.48 134.99"
/>
<path stroke="#c4e483" vector-effect="non-scaling-stroke" d="
  M 172.30 134.97
  Q 172.95 135.60 173.98 135.08
  Q 174.51 134.82 174.12 134.38
  Q 173.57 133.76 172.51 133.83"
/>
</g>
<path fill="#88c807" d="
  M 228.27 115.39
  A 112.77 112.77 0.0 0 1 115.50 228.16
  A 112.77 112.77 0.0 0 1 2.73 115.39
  A 112.77 112.77 0.0 0 1 115.50 2.62
  A 112.77 112.77 0.0 0 1 228.27 115.39
  Z
  M 221.06 115.39
  A 105.53 105.53 0.0 0 0 115.53 9.86
  A 105.53 105.53 0.0 0 0 10.00 115.39
  A 105.53 105.53 0.0 0 0 115.53 220.92
  A 105.53 105.53 0.0 0 0 221.06 115.39
  Z"
/>
<path fill="#ffffff" d="
  M 221.06 115.39
  A 105.53 105.53 0.0 0 1 115.53 220.92
  A 105.53 105.53 0.0 0 1 10.00 115.39
  A 105.53 105.53 0.0 0 1 115.53 9.86
  A 105.53 105.53 0.0 0 1 221.06 115.39
  Z
  M 216.85 115.41
  A 101.33 101.33 0.0 0 0 115.52 14.08
  A 101.33 101.33 0.0 0 0 14.19 115.41
  A 101.33 101.33 0.0 0 0 115.52 216.74
  A 101.33 101.33 0.0 0 0 216.85 115.41
  Z"
/>
<path fill="#88c807" d="
  M 216.85 115.41
  A 101.33 101.33 0.0 0 1 115.52 216.74
  A 101.33 101.33 0.0 0 1 14.19 115.41
  A 101.33 101.33 0.0 0 1 115.52 14.08
  A 101.33 101.33 0.0 0 1 216.85 115.41
  Z
  M 58.36 133.95
  Q 57.79 133.71 56.99 134.24
  A 0.45 0.45 0.0 0 0 57.01 135.01
  Q 57.61 135.37 58.48 134.99
  L 68.15 134.94
  A 0.85 0.85 0.0 0 1 69.01 135.79
  L 69.00 175.00
  A 1.01 1.01 0.0 0 1 67.99 176.01
  L 56.47 175.99
  A 0.54 0.54 0.0 0 0 55.93 176.53
  L 56.02 187.26
  A 0.75 0.74 89.6 0 0 56.76 188.00
  L 173.75 188.00
  A 1.25 1.24 90.0 0 0 174.99 186.75
  L 175.00 176.63
  Q 175.00 176.00 174.38 176.00
  L 162.75 176.01
  A 0.76 0.76 0.0 0 1 161.99 175.25
  L 161.99 136.01
  A 1.07 1.07 0.0 0 1 163.07 134.94
  L 172.30 134.97
  Q 172.95 135.60 173.98 135.08
  Q 174.51 134.82 174.12 134.38
  Q 173.57 133.76 172.51 133.83
  L 123.33 96.97
  A 3.37 3.33 -71.9 0 1 121.99 94.28
  L 121.97 68.53
  A 0.51 0.51 0.0 0 1 122.47 68.02
  L 134.40 67.76
  A 0.65 0.65 0.0 0 0 135.04 67.11
  L 134.99 56.61
  A 0.62 0.62 0.0 0 0 134.36 55.99
  L 122.48 56.10
  A 0.62 0.61 0.5 0 1 121.86 55.48
  L 121.99 43.88
  A 0.87 0.87 0.0 0 0 121.12 43.00
  L 109.57 42.98
  A 0.62 0.62 0.0 0 0 108.95 43.61
  L 109.04 54.74
  A 1.27 1.27 0.0 0 1 107.76 56.02
  L 96.48 55.99
  Q 95.96 55.99 95.96 56.52
  L 96.05 67.37
  A 0.70 0.69 -0.0 0 0 96.75 68.06
  L 108.03 68.01
  Q 109.05 68.01 109.05 69.03
  L 108.99 93.77
  A 4.51 4.50 71.7 0 1 107.18 97.38
  L 58.36 133.95
  Z"
/>
<path fill="#ffffff" d="
  M 58.36 133.95
  L 58.48 134.99
  Q 57.61 135.37 57.01 135.01
  A 0.45 0.45 0.0 0 1 56.99 134.24
  Q 57.79 133.71 58.36 133.95
  Z"
/>
<path fill="#ffffff" d="
  M 172.51 133.83
  Q 173.57 133.76 174.12 134.38
  Q 174.51 134.82 173.98 135.08
  Q 172.95 135.60 172.30 134.97
  L 172.51 133.83
  Z"
/>
</svg>
